<?xml version="1.0" encoding="UTF-8" standalone="no"?> <svg width="64" height="64" viewBox="0 0 64 64" fill="none" xmlns="http://www.w3.org/2000/svg">
<path d="M14.24 12.32C14.6095 12.315 14.9647 12.1765 15.24 11.93C19.2211 8.38996 24.2555 6.25694 29.568 5.85941C34.8805 5.46187 40.1764 6.82188 44.64 9.72996L42.72 9.92997C42.3221 9.95118 41.949 10.1296 41.6827 10.4259C41.4164 10.7222 41.2788 11.1121 41.3 11.51C41.3212 11.9078 41.4996 12.2809 41.7959 12.5472C42.0922 12.8135 42.4821 12.9512 42.88 12.93H43.04L48.66 12.32C48.8555 12.2978 49.0447 12.2369 49.2164 12.1407C49.3881 12.0445 49.5389 11.9151 49.66 11.76C49.7901 11.6044 49.8873 11.424 49.9458 11.2298C50.0042 11.0356 50.0226 10.8315 50 10.63L49.34 5.47997C49.2896 5.08214 49.0832 4.72063 48.7663 4.47495C48.4493 4.22928 48.0478 4.11957 47.65 4.16997C47.2521 4.22036 46.8906 4.42672 46.645 4.74366C46.3993 5.06059 46.2896 5.46214 46.34 5.85997L46.53 7.38997C41.5008 4.04782 35.507 2.46398 29.4833 2.88545C23.4596 3.30693 17.7447 5.71003 13.23 9.71997C13.0101 9.92379 12.8563 10.1888 12.7885 10.4809C12.7207 10.773 12.742 11.0787 12.8496 11.3586C12.9573 11.6384 13.1463 11.8796 13.3923 12.051C13.6384 12.2223 13.9301 12.316 14.23 12.32H14.24Z" fill="black"/>
<path d="M47.51 52C39.58 59.27 27.02 60 18.13 54.2L20 54C20.3978 53.9575 20.7625 53.7588 21.0138 53.4475C21.2651 53.1362 21.3824 52.7378 21.34 52.34C21.2975 51.9421 21.0988 51.5775 20.7875 51.3262C20.4762 51.0749 20.0778 50.9575 19.68 51L14.06 51.6C13.8644 51.6221 13.6753 51.6831 13.5036 51.7792C13.3319 51.8754 13.1811 52.0048 13.06 52.16C12.8153 52.479 12.7041 52.8806 12.75 53.28L13.41 58.43C13.4583 58.7914 13.6358 59.1232 13.9096 59.364C14.1835 59.6048 14.5353 59.7384 14.9 59.74H15.09C15.4834 59.69 15.8411 59.4863 16.0847 59.1733C16.3283 58.8604 16.4381 58.4636 16.39 58.07L16.19 56.53C21.2107 59.9131 27.2173 61.5231 33.257 61.1046C39.2967 60.6861 45.0238 58.2632 49.53 54.22C49.7849 53.9454 49.9278 53.5853 49.9305 53.2107C49.9333 52.836 49.7958 52.4739 49.545 52.1955C49.2942 51.9172 48.9484 51.7427 48.5755 51.7065C48.2026 51.6703 47.8296 51.775 47.53 52H47.51Z" fill="black"/>
<path d="M27.8 43.45V20.55C27.8 16.03 16.5 15.9 15.22 15.9C13.94 15.9 2.63 16 2.63 20.55V43.45C2.63 47.97 13.93 48.1 15.22 48.1C16.51 48.1 27.8 48 27.8 43.45ZM5.63 43.28V39C9.07 40.37 14.36 40.43 15.22 40.43C16.08 40.43 21.36 40.37 24.8 39V43.24C24.18 43.89 20.8 45.06 15.22 45.06C9.64001 45.06 6.25 43.93 5.63 43.28ZM24.8 28C24.18 28.66 20.8 29.83 15.22 29.83C9.64001 29.83 6.22 28.66 5.63 28V23.77C9.07 25.14 14.36 25.2 15.22 25.2C16.08 25.2 21.36 25.14 24.8 23.77V28ZM15.22 32.83C16.07 32.83 21.36 32.77 24.8 31.4V35.64C24.18 36.29 20.8 37.46 15.22 37.46C9.64001 37.46 6.22 36.29 5.63 35.64V31.41C9.07 32.78 14.36 32.84 15.22 32.84V32.83ZM15.22 18.89C20.37 18.89 23.61 19.89 24.59 20.54C23.59 21.21 20.37 22.19 15.22 22.19C10.07 22.19 6.82 21.19 5.84 20.54C6.82 19.88 10.06 18.9 15.22 18.9V18.89Z" fill="black"/>
<path d="M61.33 20.55C61.33 16 50 15.9 48.74 15.9C47.48 15.9 36.16 16 36.16 20.55V43.44C36.16 47.96 47.46 48.09 48.74 48.09C50.02 48.09 61.33 48 61.33 43.45V20.55ZM58.33 28.01C57.71 28.67 54.33 29.84 48.74 29.84C43.15 29.84 39.74 28.67 39.16 28.01V23.77C42.6 25.14 47.89 25.2 48.74 25.2C49.59 25.2 54.89 25.14 58.33 23.77V28.01ZM39.16 35.64V31.41C42.6 32.78 47.89 32.84 48.74 32.84C49.59 32.84 54.89 32.78 58.33 31.41V35.65C57.71 36.3 54.33 37.47 48.74 37.47C43.15 37.47 39.77 36.3 39.16 35.64ZM48.74 18.9C53.9 18.9 57.14 19.9 58.12 20.55C57.12 21.22 53.9 22.2 48.74 22.2C43.58 22.2 40.35 21.2 39.37 20.55C40.35 19.88 43.58 18.9 48.74 18.9ZM39.16 43.28V39C42.6 40.37 47.89 40.43 48.74 40.43C49.59 40.43 54.89 40.37 58.33 39V43.24C57.71 43.89 54.33 45.06 48.74 45.06C43.15 45.06 39.77 43.93 39.16 43.28Z" fill="black"/>
</svg>
